<svg viewBox="0 0 200 200" xmlns="http://www.w3.org/2000/svg">
  <defs>
    <linearGradient id="grad1" x1="0%" y1="0%" x2="100%" y2="100%">
      <stop offset="0%" style="stop-color:#2e7d32;stop-opacity:1" />
      <stop offset="100%" style="stop-color:#1b5e20;stop-opacity:1" />
    </linearGradient>
  </defs>
  <circle cx="100" cy="100" r="95" fill="white" stroke="#2e7d32" stroke-width="5"/>
  <circle cx="100" cy="100" r="85" fill="url(#grad1)" opacity="0.1"/>
  
  <!-- Farmer Head -->
  <circle cx="100" cy="85" r="35" fill="#fbd38d" />
  <!-- Turban (Orange) -->
  <path d="M65 65 Q100 30 135 65" fill="#fb8c00" stroke="#ef6c00" stroke-width="2"/>
  <path d="M65 65 L135 65 L100 85 Z" fill="#fb8c00" />
  
  <!-- Eyes -->
  <circle cx="88" cy="80" r="3" fill="#333" />
  <circle cx="112" cy="80" r="3" fill="#333" />
  
  <!-- Smile -->
  <path d="M85 95 Q100 110 115 95" stroke="#333" stroke-width="2" fill="none" stroke-linecap="round" />
  
  <!-- Body (Emerald Shirt) -->
  <path d="M50 160 Q100 130 150 160 L150 200 L50 200 Z" fill="#2e7d32" />
  <path d="M100 130 L100 160" stroke="#ffffff" stroke-width="2" opacity="0.5"/>
  
  <!-- Plant Emblem -->
  <path d="M90 155 Q100 140 110 155" stroke="#81c784" stroke-width="3" fill="none" />
  <path d="M100 140 L100 155" stroke="#81c784" stroke-width="2" />
</svg>
